<?xml version="1.0" standalone="no"?>
<!DOCTYPE svg PUBLIC "-//W3C//DTD SVG 20010904//EN"
 "http://www.w3.org/TR/2001/REC-SVG-20010904/DTD/svg10.dtd">
<svg version="1.0" xmlns="http://www.w3.org/2000/svg"
 width="100.000000pt" height="100.000000pt" viewBox="0 0 100.000000 100.000000"
 preserveAspectRatio="xMidYMid meet">
<metadata>
Created by potrace 1.14, written by Peter Selinger 2001-2017
</metadata>
<g transform="translate(0.000000,100.000000) scale(0.100000,-0.100000)"
fill="#000000" stroke="none">
<path d="M432 955 c-50 -31 -69 -35 -122 -22 -3 1 -19 -2 -36 -5 -25 -6 -35
-15 -49 -50 -22 -55 -39 -75 -89 -97 -58 -25 -69 -42 -63 -98 4 -43 -7 -101
-22 -113 -15 -12 -41 -61 -41 -77 0 -10 14 -34 30 -53 32 -37 34 -46 32 -125
-2 -60 8 -75 71 -103 41 -18 51 -29 73 -76 27 -59 57 -78 104 -66 36 9 85 -4
129 -34 48 -34 70 -33 116 4 21 16 45 31 54 32 9 0 23 2 31 3 8 1 24 -2 35 -6
36 -12 74 13 103 66 20 37 38 56 72 73 69 34 73 42 74 125 1 65 4 77 29 106
35 42 35 80 0 122 -24 29 -28 42 -30 106 -1 40 -5 78 -8 83 -4 6 -31 23 -60
36 -46 22 -57 33 -79 80 -24 51 -58 79 -79 67 -4 -3 -28 -5 -54 -5 -35 0 -55
7 -88 31 -24 17 -52 31 -62 30 -10 -1 -42 -16 -71 -34z"/>
</g>
</svg>
