<?xml version="1.0" standalone="no"?>
<svg xmlns:xlink="http://www.w3.org/1999/xlink" id="wave" style="transform:rotate(0deg); transition: 0.3s" viewBox="0 0 1440 250" version="1.1" xmlns="http://www.w3.org/2000/svg"><defs><linearGradient id="sw-gradient-0" x1="0" x2="0" y1="1" y2="0"><stop stop-color="rgba(243, 233, 239, 1)" offset="0%"/><stop stop-color="rgba(243, 233, 239, 1)" offset="100%"/></linearGradient></defs><path style="transform:translate(0, 0px); opacity:1" fill="url(#sw-gradient-0)" d="M0,225L80,187.5C160,150,320,75,480,75C640,75,800,150,960,162.5C1120,175,1280,125,1440,87.5C1600,50,1760,25,1920,25C2080,25,2240,50,2400,50C2560,50,2720,25,2880,37.5C3040,50,3200,100,3360,133.3C3520,167,3680,183,3840,191.7C4000,200,4160,200,4320,183.3C4480,167,4640,133,4800,108.3C4960,83,5120,67,5280,87.5C5440,108,5600,167,5760,191.7C5920,217,6080,208,6240,170.8C6400,133,6560,67,6720,66.7C6880,67,7040,133,7200,141.7C7360,150,7520,100,7680,83.3C7840,67,8000,83,8160,83.3C8320,83,8480,67,8640,83.3C8800,100,8960,150,9120,154.2C9280,158,9440,117,9600,116.7C9760,117,9920,158,10080,166.7C10240,175,10400,150,10560,150C10720,150,10880,175,11040,183.3C11200,192,11360,183,11440,179.2L11520,175L11520,250L11440,250C11360,250,11200,250,11040,250C10880,250,10720,250,10560,250C10400,250,10240,250,10080,250C9920,250,9760,250,9600,250C9440,250,9280,250,9120,250C8960,250,8800,250,8640,250C8480,250,8320,250,8160,250C8000,250,7840,250,7680,250C7520,250,7360,250,7200,250C7040,250,6880,250,6720,250C6560,250,6400,250,6240,250C6080,250,5920,250,5760,250C5600,250,5440,250,5280,250C5120,250,4960,250,4800,250C4640,250,4480,250,4320,250C4160,250,4000,250,3840,250C3680,250,3520,250,3360,250C3200,250,3040,250,2880,250C2720,250,2560,250,2400,250C2240,250,2080,250,1920,250C1760,250,1600,250,1440,250C1280,250,1120,250,960,250C800,250,640,250,480,250C320,250,160,250,80,250L0,250Z"/></svg>