<?xml version="1.0" standalone="no"?>
<svg xmlns:xlink="http://www.w3.org/1999/xlink" id="wave" style="transform:rotate(0deg); transition: 0.3s" viewBox="0 0 1440 160" version="1.1" xmlns="http://www.w3.org/2000/svg"><defs><linearGradient id="sw-gradient-0" x1="0" x2="0" y1="1" y2="0"><stop stop-color="rgba(0, 0, 0, 1)" offset="0%"/><stop stop-color="rgba(0, 0, 0, 1)" offset="100%"/></linearGradient></defs><path style="transform:translate(0, 0px); opacity:1" fill="url(#sw-gradient-0)" d="M0,32L80,48C160,64,320,96,480,101.3C640,107,800,85,960,66.7C1120,48,1280,32,1440,45.3C1600,59,1760,101,1920,117.3C2080,133,2240,123,2400,109.3C2560,96,2720,80,2880,69.3C3040,59,3200,53,3360,42.7C3520,32,3680,16,3840,10.7C4000,5,4160,11,4320,24C4480,37,4640,59,4800,64C4960,69,5120,59,5280,50.7C5440,43,5600,37,5760,53.3C5920,69,6080,107,6240,106.7C6400,107,6560,69,6720,45.3C6880,21,7040,11,7200,5.3C7360,0,7520,0,7680,21.3C7840,43,8000,85,8160,90.7C8320,96,8480,64,8640,66.7C8800,69,8960,107,9120,109.3C9280,112,9440,80,9600,66.7C9760,53,9920,59,10080,61.3C10240,64,10400,64,10560,66.7C10720,69,10880,75,11040,66.7C11200,59,11360,37,11440,26.7L11520,16L11520,160L11440,160C11360,160,11200,160,11040,160C10880,160,10720,160,10560,160C10400,160,10240,160,10080,160C9920,160,9760,160,9600,160C9440,160,9280,160,9120,160C8960,160,8800,160,8640,160C8480,160,8320,160,8160,160C8000,160,7840,160,7680,160C7520,160,7360,160,7200,160C7040,160,6880,160,6720,160C6560,160,6400,160,6240,160C6080,160,5920,160,5760,160C5600,160,5440,160,5280,160C5120,160,4960,160,4800,160C4640,160,4480,160,4320,160C4160,160,4000,160,3840,160C3680,160,3520,160,3360,160C3200,160,3040,160,2880,160C2720,160,2560,160,2400,160C2240,160,2080,160,1920,160C1760,160,1600,160,1440,160C1280,160,1120,160,960,160C800,160,640,160,480,160C320,160,160,160,80,160L0,160Z"/></svg>