<?xml version="1.0" standalone="no"?>
<!DOCTYPE svg PUBLIC "-//W3C//DTD SVG 20010904//EN"
 "http://www.w3.org/TR/2001/REC-SVG-20010904/DTD/svg10.dtd">
<svg version="1.0" xmlns="http://www.w3.org/2000/svg"
 width="113.000000pt" height="113.000000pt" viewBox="0 0 113.000000 113.000000"
 preserveAspectRatio="xMidYMid meet">
<metadata>
Created by potrace 1.14, written by Peter Selinger 2001-2017
</metadata>
<g transform="translate(0.000000,113.000000) scale(0.100000,-0.100000)"
fill="#000000" stroke="none">
<path d="M554 1105 c-12 -8 -24 -11 -28 -8 -3 3 -6 -1 -6 -11 0 -9 -4 -15 -9
-11 -5 3 -17 -3 -27 -12 -14 -14 -36 -18 -102 -20 -71 -1 -87 -4 -103 -22 -11
-11 -20 -24 -20 -28 0 -5 -10 -27 -21 -50 -18 -36 -38 -53 -68 -58 -3 0 -16
-7 -30 -14 -38 -22 -58 -53 -53 -81 12 -59 6 -107 -18 -141 -13 -19 -28 -37
-34 -41 -5 -4 -6 -8 -2 -8 5 0 1 -7 -8 -16 -12 -12 -13 -19 -5 -24 6 -4 11
-11 10 -16 -1 -8 21 -42 45 -68 15 -17 17 -33 19 -112 1 -84 18 -107 89 -121
22 -4 47 -27 47 -42 0 -6 5 -11 10 -11 6 0 10 -11 10 -25 0 -14 5 -25 10 -25
6 0 10 -7 10 -15 0 -8 10 -20 22 -26 26 -14 78 -20 78 -9 0 9 56 7 66 -3 4 -4
15 -7 25 -7 9 0 19 -4 21 -8 6 -15 66 -52 85 -52 10 0 24 5 31 12 7 7 12 8 12
3 0 -4 8 1 18 13 29 33 132 65 132 41 0 -9 34 -4 52 7 7 5 8 3 2 -7 -6 -11 -3
-10 16 2 14 8 34 33 45 55 25 51 60 95 69 87 3 -3 6 -1 6 6 0 8 8 11 20 8 11
-3 20 -2 20 2 0 4 11 13 23 20 13 7 24 18 25 24 8 46 7 109 0 113 -5 3 -4 12
2 19 7 8 8 20 4 26 -4 8 -3 9 4 5 8 -5 12 0 12 13 0 11 6 24 13 28 50 30 51
86 3 138 -27 29 -28 33 -30 125 -1 67 -25 108 -66 117 -17 3 -30 9 -30 13 0 4
-9 10 -20 13 -12 3 -30 27 -45 60 -35 76 -45 82 -128 79 -59 -2 -76 2 -104 20
-18 13 -33 26 -33 31 0 4 -7 7 -15 7 -8 0 -15 5 -15 10 0 14 -12 12 -36 -5z"/>
</g>
</svg>
